<?xml version="1.0" standalone="no"?>
<!DOCTYPE svg PUBLIC "-//W3C//DTD SVG 20010904//EN"
 "http://www.w3.org/TR/2001/REC-SVG-20010904/DTD/svg10.dtd">
<svg version="1.0" xmlns="http://www.w3.org/2000/svg"
 width="760.000000pt" height="760.000000pt" viewBox="0 0 760.000000 760.000000"
 preserveAspectRatio="xMidYMid meet">
<metadata>
Created by potrace 1.14, written by Peter Selinger 2001-2017
</metadata>
<g transform="translate(0.000000,760.000000) scale(0.100000,-0.100000)"
fill="#000000" stroke="none">
<path d="M3600 6650 c-177 -22 -235 -36 -339 -80 -220 -94 -471 -294 -619
-495 -79 -107 -90 -125 -143 -233 -120 -250 -157 -544 -105 -837 19 -104 85
-287 137 -382 136 -246 311 -423 537 -543 52 -28 67 -32 89 -24 34 12 58 56
44 81 -5 10 -38 33 -73 51 -150 79 -299 211 -400 352 -85 120 -179 333 -204
463 -61 317 -24 585 117 845 131 240 354 448 624 581 148 73 199 86 382 100
290 21 409 -1 661 -124 243 -118 324 -180 442 -336 160 -212 234 -402 267
-679 32 -272 -35 -531 -214 -821 -105 -172 -228 -269 -533 -420 -263 -130
-466 -208 -731 -279 -268 -72 -423 -128 -565 -205 -243 -131 -375 -268 -489
-510 -130 -274 -165 -426 -129 -565 29 -110 127 -218 185 -203 11 3 33 24 49
47 41 61 95 106 228 193 64 43 141 95 170 116 30 21 56 37 58 34 5 -5 5 -338
-1 -407 -6 -80 -19 -462 -19 -555 1 -351 59 -566 194 -718 51 -56 149 -125
208 -145 68 -23 95 19 152 239 56 218 87 278 175 339 l40 28 37 -19 c45 -23
100 -89 128 -154 11 -27 37 -112 57 -189 63 -249 85 -276 184 -230 194 90 321
301 353 585 4 30 9 72 11 94 10 85 5 472 -10 685 -4 58 -6 240 -6 378 l1 83
43 -34 c23 -19 108 -78 189 -131 137 -89 238 -180 238 -212 0 -15 23 -24 59
-24 31 0 96 62 130 122 78 143 53 329 -85 618 -142 297 -257 412 -554 557
-113 54 -115 55 -205 89 -89 33 -207 70 -220 69 -50 -4 -73 -42 -56 -89 8 -20
25 -29 98 -51 107 -32 224 -74 241 -88 6 -5 12 -7 12 -4 0 10 160 -74 233
-123 157 -104 237 -203 346 -431 71 -148 100 -233 108 -316 6 -65 -9 -145 -32
-177 -14 -19 -16 -18 -55 22 -22 22 -118 93 -214 156 -161 108 -210 150 -276
236 -22 28 -30 32 -53 26 -39 -9 -55 -42 -63 -126 -10 -99 -10 -378 -1 -565
16 -314 16 -686 1 -770 -20 -115 -58 -232 -95 -290 -37 -60 -104 -131 -141
-151 -26 -14 -27 -13 -42 34 -8 26 -26 94 -40 152 -45 184 -123 303 -240 364
-62 33 -91 33 -154 0 -80 -41 -152 -121 -193 -214 -11 -25 -38 -112 -59 -193
-21 -82 -40 -151 -44 -154 -7 -8 -72 42 -114 87 -66 71 -134 248 -150 390 -9
85 -8 597 3 770 12 217 8 512 -10 605 -2 11 -4 23 -4 27 -1 4 -12 15 -26 24
-33 22 -78 4 -95 -36 -19 -47 -94 -109 -265 -222 -88 -57 -179 -124 -203 -147
-23 -23 -47 -39 -52 -36 -4 3 -16 25 -26 50 -24 63 -15 185 21 285 33 91 151
331 193 391 69 100 211 214 359 288 153 76 277 118 641 215 318 85 906 376
1058 524 167 163 331 492 378 762 12 69 14 313 3 365 -3 11 -8 43 -11 70 -4
28 -14 77 -23 110 -8 33 -16 67 -18 75 -7 33 -57 158 -91 224 -84 165 -204
320 -332 429 -17 15 -34 27 -37 27 -2 0 -29 16 -59 35 -79 50 -271 148 -352
178 -157 59 -208 69 -389 71 -93 1 -195 -1 -225 -4z"/>
</g>
</svg>
